<?xml version="1.0" encoding="UTF-8" standalone="no"?>
<!DOCTYPE svg PUBLIC "-//W3C//DTD SVG 1.1//EN"
 "http://www.w3.org/Graphics/SVG/1.1/DTD/svg11.dtd">
<!-- Generated by graphviz version 2.47.0 (20210316.0004)
 -->
<!-- Title: dependencies Pages: 1 -->
<svg width="1274pt" height="211pt"
 viewBox="0.00 0.00 1274.00 211.00" xmlns="http://www.w3.org/2000/svg" xmlns:xlink="http://www.w3.org/1999/xlink">
<g id="graph0" class="graph" transform="scale(1 1) rotate(0) translate(4 207)">
<title>dependencies</title>
<polygon fill="white" stroke="transparent" points="-4,4 -4,-207 1270,-207 1270,4 -4,4"/>
<text text-anchor="start" x="612.01" y="-42.4" font-family="sans-serif" font-weight="bold" font-size="14.00">Legend</text>
<polygon fill="#ffffb3" stroke="transparent" points="399,-10 399,-30 419,-30 419,-10 399,-10"/>
<text text-anchor="start" x="422.63" y="-15.4" font-family="sans-serif" font-size="14.00"> &#160;Declarations</text>
<polygon fill="#8dd3c7" stroke="transparent" points="512,-10 512,-30 532,-30 532,-10 512,-10"/>
<text text-anchor="start" x="535.73" y="-15.4" font-family="sans-serif" font-size="14.00"> &#160;Module</text>
<polygon fill="#80b1d3" stroke="transparent" points="598,-10 598,-30 618,-30 618,-10 598,-10"/>
<text text-anchor="start" x="621.78" y="-15.4" font-family="sans-serif" font-size="14.00"> &#160;Bootstrap</text>
<polygon fill="#fdb462" stroke="transparent" points="695,-10 695,-30 715,-30 715,-10 695,-10"/>
<text text-anchor="start" x="718.67" y="-15.4" font-family="sans-serif" font-size="14.00"> &#160;Providers</text>
<polygon fill="#fb8072" stroke="transparent" points="791,-10 791,-30 811,-30 811,-10 791,-10"/>
<text text-anchor="start" x="814.73" y="-15.4" font-family="sans-serif" font-size="14.00"> &#160;Exports</text>
<g id="clust1" class="cluster">
<title>cluster_GermanyOverviewModule</title>
<polygon fill="none" stroke="black" stroke-dasharray="1,5" points="8,-70 8,-195 1258,-195 1258,-70 8,-70"/>
</g>
<g id="clust8" class="cluster">
<title>cluster_GermanyOverviewModule_imports</title>
<polygon fill="none" stroke="black" points="1074,-78 1074,-130 1250,-130 1250,-78 1074,-78"/>
</g>
<g id="clust2" class="cluster">
<title>cluster_GermanyOverviewModule_declarations</title>
<polygon fill="none" stroke="black" points="192,-78 192,-130 1066,-130 1066,-78 192,-78"/>
</g>
<g id="clust11" class="cluster">
<title>cluster_GermanyOverviewModule_providers</title>
<polygon fill="none" stroke="black" points="16,-78 16,-130 184,-130 184,-78 16,-78"/>
</g>
<!-- AlertComponent -->
<g id="node1" class="node">
<title>AlertComponent</title>
<polygon fill="#ffffb3" stroke="black" points="1058.1,-122 947.9,-122 947.9,-86 1058.1,-86 1058.1,-122"/>
<text text-anchor="middle" x="1003" y="-99.8" font-family="Times,serif" font-size="14.00">AlertComponent</text>
</g>
<!-- GermanyOverviewModule -->
<g id="node6" class="node">
<title>GermanyOverviewModule</title>
<polygon fill="#8dd3c7" stroke="black" points="741.33,-187 738.33,-191 717.33,-191 714.33,-187 574.67,-187 574.67,-151 741.33,-151 741.33,-187"/>
<text text-anchor="middle" x="658" y="-164.8" font-family="Times,serif" font-size="14.00">GermanyOverviewModule</text>
</g>
<!-- AlertComponent&#45;&gt;GermanyOverviewModule -->
<g id="edge1" class="edge">
<title>AlertComponent&#45;&gt;GermanyOverviewModule</title>
<path fill="none" stroke="black" d="M1003,-122.11C1003,-141.34 1003,-169 1003,-169 1003,-169 751.51,-169 751.51,-169"/>
<polygon fill="black" stroke="black" points="751.51,-165.5 741.51,-169 751.51,-172.5 751.51,-165.5"/>
</g>
<!-- GermanyMapComponent -->
<g id="node2" class="node">
<title>GermanyMapComponent</title>
<polygon fill="#ffffb3" stroke="black" points="929.58,-122 770.42,-122 770.42,-86 929.58,-86 929.58,-122"/>
<text text-anchor="middle" x="850" y="-99.8" font-family="Times,serif" font-size="14.00">GermanyMapComponent</text>
</g>
<!-- GermanyMapComponent&#45;&gt;GermanyOverviewModule -->
<g id="edge2" class="edge">
<title>GermanyMapComponent&#45;&gt;GermanyOverviewModule</title>
<path fill="none" stroke="black" d="M850,-122.03C850,-138.4 850,-160 850,-160 850,-160 751.38,-160 751.38,-160"/>
<polygon fill="black" stroke="black" points="751.38,-156.5 741.38,-160 751.38,-163.5 751.38,-156.5"/>
</g>
<!-- GermanyOverviewComponent -->
<g id="node3" class="node">
<title>GermanyOverviewComponent</title>
<polygon fill="#ffffb3" stroke="black" points="752.11,-122 563.89,-122 563.89,-86 752.11,-86 752.11,-122"/>
<text text-anchor="middle" x="658" y="-99.8" font-family="Times,serif" font-size="14.00">GermanyOverviewComponent</text>
</g>
<!-- GermanyOverviewComponent&#45;&gt;GermanyOverviewModule -->
<g id="edge3" class="edge">
<title>GermanyOverviewComponent&#45;&gt;GermanyOverviewModule</title>
<path fill="none" stroke="black" d="M658,-122.11C658,-122.11 658,-140.99 658,-140.99"/>
<polygon fill="black" stroke="black" points="654.5,-140.99 658,-150.99 661.5,-140.99 654.5,-140.99"/>
</g>
<!-- LineChartComponent -->
<g id="node4" class="node">
<title>LineChartComponent</title>
<polygon fill="#ffffb3" stroke="black" points="546.09,-122 407.91,-122 407.91,-86 546.09,-86 546.09,-122"/>
<text text-anchor="middle" x="477" y="-99.8" font-family="Times,serif" font-size="14.00">LineChartComponent</text>
</g>
<!-- LineChartComponent&#45;&gt;GermanyOverviewModule -->
<g id="edge4" class="edge">
<title>LineChartComponent&#45;&gt;GermanyOverviewModule</title>
<path fill="none" stroke="black" d="M477,-122.03C477,-138.4 477,-160 477,-160 477,-160 564.65,-160 564.65,-160"/>
<polygon fill="black" stroke="black" points="564.65,-163.5 574.65,-160 564.65,-156.5 564.65,-163.5"/>
</g>
<!-- TimeframeSelectorComponent -->
<g id="node5" class="node">
<title>TimeframeSelectorComponent</title>
<polygon fill="#ffffb3" stroke="black" points="389.89,-122 200.11,-122 200.11,-86 389.89,-86 389.89,-122"/>
<text text-anchor="middle" x="295" y="-99.8" font-family="Times,serif" font-size="14.00">TimeframeSelectorComponent</text>
</g>
<!-- TimeframeSelectorComponent&#45;&gt;GermanyOverviewModule -->
<g id="edge5" class="edge">
<title>TimeframeSelectorComponent&#45;&gt;GermanyOverviewModule</title>
<path fill="none" stroke="black" d="M295,-122.11C295,-141.34 295,-169 295,-169 295,-169 564.26,-169 564.26,-169"/>
<polygon fill="black" stroke="black" points="564.26,-172.5 574.26,-169 564.26,-165.5 564.26,-172.5"/>
</g>
<!-- ResponsiveWidthModule -->
<g id="node7" class="node">
<title>ResponsiveWidthModule</title>
<polygon fill="#8dd3c7" stroke="black" points="1241.59,-122 1238.59,-126 1217.59,-126 1214.59,-122 1082.41,-122 1082.41,-86 1241.59,-86 1241.59,-122"/>
<text text-anchor="middle" x="1162" y="-99.8" font-family="Times,serif" font-size="14.00">ResponsiveWidthModule</text>
</g>
<!-- ResponsiveWidthModule&#45;&gt;GermanyOverviewModule -->
<g id="edge6" class="edge">
<title>ResponsiveWidthModule&#45;&gt;GermanyOverviewModule</title>
<path fill="none" stroke="black" d="M1162,-122.29C1162,-144.21 1162,-178 1162,-178 1162,-178 751.51,-178 751.51,-178"/>
<polygon fill="black" stroke="black" points="751.51,-174.5 741.51,-178 751.51,-181.5 751.51,-174.5"/>
</g>
<!-- GermanyService -->
<g id="node8" class="node">
<title>GermanyService</title>
<ellipse fill="#fdb462" stroke="black" cx="100" cy="-104" rx="75.84" ry="18"/>
<text text-anchor="middle" x="100" y="-99.8" font-family="Times,serif" font-size="14.00">GermanyService</text>
</g>
<!-- GermanyService&#45;&gt;GermanyOverviewModule -->
<g id="edge7" class="edge">
<title>GermanyService&#45;&gt;GermanyOverviewModule</title>
<path fill="none" stroke="black" d="M100,-122.29C100,-144.21 100,-178 100,-178 100,-178 564.46,-178 564.46,-178"/>
<polygon fill="black" stroke="black" points="564.46,-181.5 574.46,-178 564.46,-174.5 564.46,-181.5"/>
</g>
</g>
</svg>
