<?xml version="1.0" encoding="UTF-8" standalone="no"?>
<!DOCTYPE svg PUBLIC "-//W3C//DTD SVG 1.1//EN"
 "http://www.w3.org/Graphics/SVG/1.1/DTD/svg11.dtd">
<!-- Generated by graphviz version 2.47.0 (20210316.0004)
 -->
<!-- Title: dependencies Pages: 1 -->
<svg width="641pt" height="284pt"
 viewBox="0.00 0.00 641.00 284.00" xmlns="http://www.w3.org/2000/svg" xmlns:xlink="http://www.w3.org/1999/xlink">
<g id="graph0" class="graph" transform="scale(1 1) rotate(0) translate(4 280)">
<title>dependencies</title>
<polygon fill="white" stroke="transparent" points="-4,4 -4,-280 637,-280 637,4 -4,4"/>
<text text-anchor="start" x="295.51" y="-42.4" font-family="sans-serif" font-weight="bold" font-size="14.00">Legend</text>
<polygon fill="#ffffb3" stroke="transparent" points="82.5,-10 82.5,-30 102.5,-30 102.5,-10 82.5,-10"/>
<text text-anchor="start" x="106.13" y="-15.4" font-family="sans-serif" font-size="14.00"> &#160;Declarations</text>
<polygon fill="#8dd3c7" stroke="transparent" points="195.5,-10 195.5,-30 215.5,-30 215.5,-10 195.5,-10"/>
<text text-anchor="start" x="219.23" y="-15.4" font-family="sans-serif" font-size="14.00"> &#160;Module</text>
<polygon fill="#80b1d3" stroke="transparent" points="281.5,-10 281.5,-30 301.5,-30 301.5,-10 281.5,-10"/>
<text text-anchor="start" x="305.28" y="-15.4" font-family="sans-serif" font-size="14.00"> &#160;Bootstrap</text>
<polygon fill="#fdb462" stroke="transparent" points="378.5,-10 378.5,-30 398.5,-30 398.5,-10 378.5,-10"/>
<text text-anchor="start" x="402.17" y="-15.4" font-family="sans-serif" font-size="14.00"> &#160;Providers</text>
<polygon fill="#fb8072" stroke="transparent" points="474.5,-10 474.5,-30 494.5,-30 494.5,-10 474.5,-10"/>
<text text-anchor="start" x="498.23" y="-15.4" font-family="sans-serif" font-size="14.00"> &#160;Exports</text>
<g id="clust1" class="cluster">
<title>cluster_AppModule</title>
<polygon fill="none" stroke="black" stroke-dasharray="1,5" points="8,-70 8,-268 625,-268 625,-70 8,-70"/>
</g>
<g id="clust4" class="cluster">
<title>cluster_AppModule_imports</title>
<polygon fill="none" stroke="black" points="368,-78 368,-130 617,-130 617,-78 368,-78"/>
</g>
<g id="clust7" class="cluster">
<title>cluster_AppModule_providers</title>
<polygon fill="none" stroke="black" points="146,-78 146,-130 360,-130 360,-78 146,-78"/>
</g>
<g id="clust2" class="cluster">
<title>cluster_AppModule_declarations</title>
<polygon fill="none" stroke="black" points="16,-78 16,-130 138,-130 138,-78 16,-78"/>
</g>
<g id="clust6" class="cluster">
<title>cluster_AppModule_bootstrap</title>
<polygon fill="none" stroke="black" points="274,-208 274,-260 398,-260 398,-208 274,-208"/>
</g>
<!-- AppComponent -->
<g id="node1" class="node">
<title>AppComponent</title>
<polygon fill="#ffffb3" stroke="black" points="129.94,-122 24.06,-122 24.06,-86 129.94,-86 129.94,-122"/>
<text text-anchor="middle" x="77" y="-99.8" font-family="Times,serif" font-size="14.00">AppComponent</text>
</g>
<!-- AppModule -->
<g id="node2" class="node">
<title>AppModule</title>
<polygon fill="#8dd3c7" stroke="black" points="377.66,-187 374.66,-191 353.66,-191 350.66,-187 294.34,-187 294.34,-151 377.66,-151 377.66,-187"/>
<text text-anchor="middle" x="336" y="-164.8" font-family="Times,serif" font-size="14.00">AppModule</text>
</g>
<!-- AppComponent&#45;&gt;AppModule -->
<g id="edge1" class="edge">
<title>AppComponent&#45;&gt;AppModule</title>
<path fill="none" stroke="black" d="M77,-122.11C77,-141.34 77,-169 77,-169 77,-169 284.1,-169 284.1,-169"/>
<polygon fill="black" stroke="black" points="284.1,-172.5 294.1,-169 284.1,-165.5 284.1,-172.5"/>
</g>
<!-- AppComponent  -->
<g id="node5" class="node">
<title>AppComponent </title>
<polygon fill="#80b1d3" stroke="black" points="390.44,-252 281.56,-252 281.56,-216 390.44,-216 390.44,-252"/>
<text text-anchor="middle" x="336" y="-229.8" font-family="Times,serif" font-size="14.00">AppComponent </text>
</g>
<!-- AppModule&#45;&gt;AppComponent  -->
<g id="edge4" class="edge">
<title>AppModule&#45;&gt;AppComponent </title>
<path fill="none" stroke="black" stroke-dasharray="1,5" d="M336,-187.11C336,-187.11 336,-205.99 336,-205.99"/>
<polygon fill="black" stroke="black" points="332.5,-205.99 336,-215.99 339.5,-205.99 332.5,-205.99"/>
</g>
<!-- AppRoutingModule -->
<g id="node3" class="node">
<title>AppRoutingModule</title>
<polygon fill="#8dd3c7" stroke="black" points="609.27,-122 606.27,-126 585.27,-126 582.27,-122 480.73,-122 480.73,-86 609.27,-86 609.27,-122"/>
<text text-anchor="middle" x="545" y="-99.8" font-family="Times,serif" font-size="14.00">AppRoutingModule</text>
</g>
<!-- AppRoutingModule&#45;&gt;AppModule -->
<g id="edge2" class="edge">
<title>AppRoutingModule&#45;&gt;AppModule</title>
<path fill="none" stroke="black" d="M545,-122.28C545,-143.32 545,-175 545,-175 545,-175 387.79,-175 387.79,-175"/>
<polygon fill="black" stroke="black" points="387.79,-171.5 377.79,-175 387.79,-178.5 387.79,-171.5"/>
</g>
<!-- CoreModule -->
<g id="node4" class="node">
<title>CoreModule</title>
<polygon fill="#8dd3c7" stroke="black" points="462.26,-122 459.26,-126 438.26,-126 435.26,-122 375.74,-122 375.74,-86 462.26,-86 462.26,-122"/>
<text text-anchor="middle" x="419" y="-99.8" font-family="Times,serif" font-size="14.00">CoreModule</text>
</g>
<!-- CoreModule&#45;&gt;AppModule -->
<g id="edge3" class="edge">
<title>CoreModule&#45;&gt;AppModule</title>
<path fill="none" stroke="black" d="M384.15,-122.02C384.15,-139.37 384.15,-163 384.15,-163 384.15,-163 383.52,-163 383.52,-163"/>
<polygon fill="black" stroke="black" points="387.85,-159.5 377.85,-163 387.85,-166.5 387.85,-159.5"/>
</g>
<!-- ServerErrorInterceptor -->
<g id="node6" class="node">
<title>ServerErrorInterceptor</title>
<ellipse fill="#fdb462" stroke="black" cx="253" cy="-104" rx="98.93" ry="18"/>
<text text-anchor="middle" x="253" y="-99.8" font-family="Times,serif" font-size="14.00">ServerErrorInterceptor</text>
</g>
<!-- ServerErrorInterceptor&#45;&gt;AppModule -->
<g id="edge5" class="edge">
<title>ServerErrorInterceptor&#45;&gt;AppModule</title>
<path fill="none" stroke="black" d="M323.07,-116.84C323.07,-116.84 323.07,-140.52 323.07,-140.52"/>
<polygon fill="black" stroke="black" points="319.57,-140.52 323.07,-150.52 326.57,-140.52 319.57,-140.52"/>
</g>
</g>
</svg>
