<?xml version="1.0" encoding="UTF-8" standalone="no"?>
<!DOCTYPE svg PUBLIC "-//W3C//DTD SVG 1.1//EN"
 "http://www.w3.org/Graphics/SVG/1.1/DTD/svg11.dtd">
<!-- Generated by graphviz version 2.47.0 (20210316.0004)
 -->
<!-- Title: dependencies Pages: 1 -->
<svg width="1274pt" height="211pt"
 viewBox="0.00 0.00 1274.00 211.00" xmlns="http://www.w3.org/2000/svg" xmlns:xlink="http://www.w3.org/1999/xlink">
<g id="graph0" class="graph" transform="scale(1 1) rotate(0) translate(4 207)">
<title>dependencies</title>
<polygon fill="white" stroke="transparent" points="-4,4 -4,-207 1270,-207 1270,4 -4,4"/>
<text text-anchor="start" x="612.01" y="-42.4" font-family="sans-serif" font-weight="bold" font-size="14.00">Legend</text>
<polygon fill="#ffffb3" stroke="transparent" points="399,-10 399,-30 419,-30 419,-10 399,-10"/>
<text text-anchor="start" x="422.63" y="-15.4" font-family="sans-serif" font-size="14.00"> &#160;Declarations</text>
<polygon fill="#8dd3c7" stroke="transparent" points="512,-10 512,-30 532,-30 532,-10 512,-10"/>
<text text-anchor="start" x="535.73" y="-15.4" font-family="sans-serif" font-size="14.00"> &#160;Module</text>
<polygon fill="#80b1d3" stroke="transparent" points="598,-10 598,-30 618,-30 618,-10 598,-10"/>
<text text-anchor="start" x="621.78" y="-15.4" font-family="sans-serif" font-size="14.00"> &#160;Bootstrap</text>
<polygon fill="#fdb462" stroke="transparent" points="695,-10 695,-30 715,-30 715,-10 695,-10"/>
<text text-anchor="start" x="718.67" y="-15.4" font-family="sans-serif" font-size="14.00"> &#160;Providers</text>
<polygon fill="#fb8072" stroke="transparent" points="791,-10 791,-30 811,-30 811,-10 791,-10"/>
<text text-anchor="start" x="814.73" y="-15.4" font-family="sans-serif" font-size="14.00"> &#160;Exports</text>
<g id="clust1" class="cluster">
<title>cluster_GermanyOverviewModule</title>
<polygon fill="none" stroke="black" stroke-dasharray="1,5" points="8,-70 8,-195 1258,-195 1258,-70 8,-70"/>
</g>
<g id="clust8" class="cluster">
<title>cluster_GermanyOverviewModule_imports</title>
<polygon fill="none" stroke="black" points="1074,-78 1074,-130 1250,-130 1250,-78 1074,-78"/>
</g>
<g id="clust11" class="cluster">
<title>cluster_GermanyOverviewModule_providers</title>
<polygon fill="none" stroke="black" points="898,-78 898,-130 1066,-130 1066,-78 898,-78"/>
</g>
<g id="clust2" class="cluster">
<title>cluster_GermanyOverviewModule_declarations</title>
<polygon fill="none" stroke="black" points="16,-78 16,-130 890,-130 890,-78 16,-78"/>
</g>
<!-- AlertComponent -->
<g id="node1" class="node">
<title>AlertComponent</title>
<polygon fill="#ffffb3" stroke="black" points="882.1,-122 771.9,-122 771.9,-86 882.1,-86 882.1,-122"/>
<text text-anchor="middle" x="827" y="-99.8" font-family="Times,serif" font-size="14.00">AlertComponent</text>
</g>
<!-- GermanyOverviewModule -->
<g id="node6" class="node">
<title>GermanyOverviewModule</title>
<polygon fill="#8dd3c7" stroke="black" points="757.33,-187 754.33,-191 733.33,-191 730.33,-187 590.67,-187 590.67,-151 757.33,-151 757.33,-187"/>
<text text-anchor="middle" x="674" y="-164.8" font-family="Times,serif" font-size="14.00">GermanyOverviewModule</text>
</g>
<!-- AlertComponent&#45;&gt;GermanyOverviewModule -->
<g id="edge1" class="edge">
<title>AlertComponent&#45;&gt;GermanyOverviewModule</title>
<path fill="none" stroke="black" d="M827,-122.03C827,-138.4 827,-160 827,-160 827,-160 767.66,-160 767.66,-160"/>
<polygon fill="black" stroke="black" points="767.66,-156.5 757.66,-160 767.66,-163.5 767.66,-156.5"/>
</g>
<!-- GermanyMapComponent -->
<g id="node2" class="node">
<title>GermanyMapComponent</title>
<polygon fill="#ffffb3" stroke="black" points="753.58,-122 594.42,-122 594.42,-86 753.58,-86 753.58,-122"/>
<text text-anchor="middle" x="674" y="-99.8" font-family="Times,serif" font-size="14.00">GermanyMapComponent</text>
</g>
<!-- GermanyMapComponent&#45;&gt;GermanyOverviewModule -->
<g id="edge2" class="edge">
<title>GermanyMapComponent&#45;&gt;GermanyOverviewModule</title>
<path fill="none" stroke="black" d="M674,-122.11C674,-122.11 674,-140.99 674,-140.99"/>
<polygon fill="black" stroke="black" points="670.5,-140.99 674,-150.99 677.5,-140.99 670.5,-140.99"/>
</g>
<!-- GermanyOverviewComponent -->
<g id="node3" class="node">
<title>GermanyOverviewComponent</title>
<polygon fill="#ffffb3" stroke="black" points="576.11,-122 387.89,-122 387.89,-86 576.11,-86 576.11,-122"/>
<text text-anchor="middle" x="482" y="-99.8" font-family="Times,serif" font-size="14.00">GermanyOverviewComponent</text>
</g>
<!-- GermanyOverviewComponent&#45;&gt;GermanyOverviewModule -->
<g id="edge3" class="edge">
<title>GermanyOverviewComponent&#45;&gt;GermanyOverviewModule</title>
<path fill="none" stroke="black" d="M482,-122.03C482,-138.4 482,-160 482,-160 482,-160 580.62,-160 580.62,-160"/>
<polygon fill="black" stroke="black" points="580.62,-163.5 590.62,-160 580.62,-156.5 580.62,-163.5"/>
</g>
<!-- LineChartComponent -->
<g id="node4" class="node">
<title>LineChartComponent</title>
<polygon fill="#ffffb3" stroke="black" points="370.09,-122 231.91,-122 231.91,-86 370.09,-86 370.09,-122"/>
<text text-anchor="middle" x="301" y="-99.8" font-family="Times,serif" font-size="14.00">LineChartComponent</text>
</g>
<!-- LineChartComponent&#45;&gt;GermanyOverviewModule -->
<g id="edge4" class="edge">
<title>LineChartComponent&#45;&gt;GermanyOverviewModule</title>
<path fill="none" stroke="black" d="M301,-122.11C301,-141.34 301,-169 301,-169 301,-169 580.29,-169 580.29,-169"/>
<polygon fill="black" stroke="black" points="580.29,-172.5 590.29,-169 580.29,-165.5 580.29,-172.5"/>
</g>
<!-- TimeframeSelectorComponent -->
<g id="node5" class="node">
<title>TimeframeSelectorComponent</title>
<polygon fill="#ffffb3" stroke="black" points="213.89,-122 24.11,-122 24.11,-86 213.89,-86 213.89,-122"/>
<text text-anchor="middle" x="119" y="-99.8" font-family="Times,serif" font-size="14.00">TimeframeSelectorComponent</text>
</g>
<!-- TimeframeSelectorComponent&#45;&gt;GermanyOverviewModule -->
<g id="edge5" class="edge">
<title>TimeframeSelectorComponent&#45;&gt;GermanyOverviewModule</title>
<path fill="none" stroke="black" d="M119,-122.29C119,-144.21 119,-178 119,-178 119,-178 580.61,-178 580.61,-178"/>
<polygon fill="black" stroke="black" points="580.61,-181.5 590.61,-178 580.61,-174.5 580.61,-181.5"/>
</g>
<!-- ResponsiveWidthModule -->
<g id="node7" class="node">
<title>ResponsiveWidthModule</title>
<polygon fill="#8dd3c7" stroke="black" points="1241.59,-122 1238.59,-126 1217.59,-126 1214.59,-122 1082.41,-122 1082.41,-86 1241.59,-86 1241.59,-122"/>
<text text-anchor="middle" x="1162" y="-99.8" font-family="Times,serif" font-size="14.00">ResponsiveWidthModule</text>
</g>
<!-- ResponsiveWidthModule&#45;&gt;GermanyOverviewModule -->
<g id="edge6" class="edge">
<title>ResponsiveWidthModule&#45;&gt;GermanyOverviewModule</title>
<path fill="none" stroke="black" d="M1162,-122.29C1162,-144.21 1162,-178 1162,-178 1162,-178 767.34,-178 767.34,-178"/>
<polygon fill="black" stroke="black" points="767.34,-174.5 757.34,-178 767.34,-181.5 767.34,-174.5"/>
</g>
<!-- GermanyService -->
<g id="node8" class="node">
<title>GermanyService</title>
<ellipse fill="#fdb462" stroke="black" cx="982" cy="-104" rx="75.84" ry="18"/>
<text text-anchor="middle" x="982" y="-99.8" font-family="Times,serif" font-size="14.00">GermanyService</text>
</g>
<!-- GermanyService&#45;&gt;GermanyOverviewModule -->
<g id="edge7" class="edge">
<title>GermanyService&#45;&gt;GermanyOverviewModule</title>
<path fill="none" stroke="black" d="M982,-122.11C982,-141.34 982,-169 982,-169 982,-169 767.35,-169 767.35,-169"/>
<polygon fill="black" stroke="black" points="767.35,-165.5 757.35,-169 767.35,-172.5 767.35,-165.5"/>
</g>
</g>
</svg>
