<?xml version="1.0" encoding="UTF-8" standalone="no"?>
<!DOCTYPE svg PUBLIC "-//W3C//DTD SVG 1.1//EN"
 "http://www.w3.org/Graphics/SVG/1.1/DTD/svg11.dtd">
<!-- Generated by graphviz version 2.47.0 (20210316.0004)
 -->
<!-- Title: dependencies Pages: 1 -->
<svg width="504pt" height="284pt"
 viewBox="0.00 0.00 504.00 284.00" xmlns="http://www.w3.org/2000/svg" xmlns:xlink="http://www.w3.org/1999/xlink">
<g id="graph0" class="graph" transform="scale(1 1) rotate(0) translate(4 280)">
<title>dependencies</title>
<polygon fill="white" stroke="transparent" points="-4,4 -4,-280 500,-280 500,4 -4,4"/>
<text text-anchor="start" x="227.01" y="-42.4" font-family="sans-serif" font-weight="bold" font-size="14.00">Legend</text>
<polygon fill="#ffffb3" stroke="transparent" points="14,-10 14,-30 34,-30 34,-10 14,-10"/>
<text text-anchor="start" x="37.63" y="-15.4" font-family="sans-serif" font-size="14.00"> &#160;Declarations</text>
<polygon fill="#8dd3c7" stroke="transparent" points="127,-10 127,-30 147,-30 147,-10 127,-10"/>
<text text-anchor="start" x="150.73" y="-15.4" font-family="sans-serif" font-size="14.00"> &#160;Module</text>
<polygon fill="#80b1d3" stroke="transparent" points="213,-10 213,-30 233,-30 233,-10 213,-10"/>
<text text-anchor="start" x="236.78" y="-15.4" font-family="sans-serif" font-size="14.00"> &#160;Bootstrap</text>
<polygon fill="#fdb462" stroke="transparent" points="310,-10 310,-30 330,-30 330,-10 310,-10"/>
<text text-anchor="start" x="333.67" y="-15.4" font-family="sans-serif" font-size="14.00"> &#160;Providers</text>
<polygon fill="#fb8072" stroke="transparent" points="406,-10 406,-30 426,-30 426,-10 406,-10"/>
<text text-anchor="start" x="429.73" y="-15.4" font-family="sans-serif" font-size="14.00"> &#160;Exports</text>
<g id="clust1" class="cluster">
<title>cluster_CoreModule</title>
<polygon fill="none" stroke="black" stroke-dasharray="1,5" points="93.5,-70 93.5,-268 402.5,-268 402.5,-70 93.5,-70"/>
</g>
<g id="clust6" class="cluster">
<title>cluster_CoreModule_exports</title>
<polygon fill="none" stroke="black" points="174.5,-208 174.5,-260 302.5,-260 302.5,-208 174.5,-208"/>
</g>
<g id="clust2" class="cluster">
<title>cluster_CoreModule_declarations</title>
<polygon fill="none" stroke="black" points="101.5,-78 101.5,-130 394.5,-130 394.5,-78 101.5,-78"/>
</g>
<!-- BreadcrumbComponent -->
<g id="node1" class="node">
<title>BreadcrumbComponent</title>
<polygon fill="#ffffb3" stroke="black" points="386.53,-122 236.47,-122 236.47,-86 386.53,-86 386.53,-122"/>
<text text-anchor="middle" x="311.5" y="-99.8" font-family="Times,serif" font-size="14.00">BreadcrumbComponent</text>
</g>
<!-- CoreModule -->
<g id="node3" class="node">
<title>CoreModule</title>
<polygon fill="#8dd3c7" stroke="black" points="281.76,-187 278.76,-191 257.76,-191 254.76,-187 195.24,-187 195.24,-151 281.76,-151 281.76,-187"/>
<text text-anchor="middle" x="238.5" y="-164.8" font-family="Times,serif" font-size="14.00">CoreModule</text>
</g>
<!-- BreadcrumbComponent&#45;&gt;CoreModule -->
<g id="edge1" class="edge">
<title>BreadcrumbComponent&#45;&gt;CoreModule</title>
<path fill="none" stroke="black" d="M259.06,-122.11C259.06,-122.11 259.06,-140.99 259.06,-140.99"/>
<polygon fill="black" stroke="black" points="255.56,-140.99 259.06,-150.99 262.56,-140.99 255.56,-140.99"/>
</g>
<!-- CoreComponent -->
<g id="node2" class="node">
<title>CoreComponent</title>
<polygon fill="#ffffb3" stroke="black" points="217.55,-122 109.45,-122 109.45,-86 217.55,-86 217.55,-122"/>
<text text-anchor="middle" x="163.5" y="-99.8" font-family="Times,serif" font-size="14.00">CoreComponent</text>
</g>
<!-- CoreComponent&#45;&gt;CoreModule -->
<g id="edge2" class="edge">
<title>CoreComponent&#45;&gt;CoreModule</title>
<path fill="none" stroke="black" d="M206.45,-122.11C206.45,-122.11 206.45,-140.99 206.45,-140.99"/>
<polygon fill="black" stroke="black" points="202.95,-140.99 206.45,-150.99 209.95,-140.99 202.95,-140.99"/>
</g>
<!-- CoreComponent  -->
<g id="node4" class="node">
<title>CoreComponent </title>
<polygon fill="#fb8072" stroke="black" points="294.54,-252 182.46,-252 182.46,-216 294.54,-216 294.54,-252"/>
<text text-anchor="middle" x="238.5" y="-229.8" font-family="Times,serif" font-size="14.00">CoreComponent </text>
</g>
<!-- CoreModule&#45;&gt;CoreComponent  -->
<g id="edge3" class="edge">
<title>CoreModule&#45;&gt;CoreComponent </title>
<path fill="none" stroke="black" stroke-dasharray="5,2" d="M238.5,-187.11C238.5,-187.11 238.5,-205.99 238.5,-205.99"/>
<polygon fill="black" stroke="black" points="235,-205.99 238.5,-215.99 242,-205.99 235,-205.99"/>
</g>
</g>
</svg>
